PathFileType	4	(X/Y/Z)	C:\Users\WrightLab\Desktop\Jo\P5V21.trc
DataRate	CameraRate	NumFrames	NumMarkers	Units	OrigDataRate	OrigDataStartFrame	OrigNumFrames
100.00	100.00	       6	19	mm	100.00	150	       399
Frame#	Time	Headset_Front			Headset_Back			Headset_Left			Headset_Right			Left_Shoulder			Right_Shoulder			Sternum			C7			Left Elbow			Right Elbow			Left Wrist			Right Wrist			Left ASIS			Right ASIS			S2			Left Knee			Right Knee			Left Ankle			Right Ankle			
		X1	Y1	Z1	X2	Y2	Z2	X3	Y3	Z3	X4	Y4	Z4	X5	Y5	Z5	X6	Y6	Z6	X7	Y7	Z7	X8	Y8	Z8	X9	Y9	Z9	X10	Y10	Z10	X11	Y11	Z11	X12	Y12	Z12	X13	Y13	Z13	X14	Y14	Z14	X15	Y15	Z15	X16	Y16	Z16	X17	Y17	Z17	X18	Y18	Z18	X19	Y19	Z19	

150	1.490	-144.11951	1416.49988	-19.00587	-242.57037	1526.66028	-54.83505				-21.17917	1554.11096	-121.81575	25.10437	1477.30750	-339.93640				-139.70453	1288.48718	-196.85101	-221.82195	1530.03284	-354.08505	51.97487	1336.44116	-261.21652	-434.85922	1225.34412	-27.95978	89.34946	1216.32397	-411.86893	-310.00333	1111.82361	155.56360	-24.12620	907.31598	-253.56487	-292.71664	931.45544	-116.27970	-257.83957	990.27875	-450.31372	-16.96865	493.41452	-202.60219	-333.81223	506.16492	-142.89764	-68.67633	89.12523	-314.01135	-340.74539	98.63603	-187.67081	
151	1.500	-148.58298	1416.73535	-19.08160	-245.93884	1527.13916	-57.60398				-23.37452	1554.09814	-118.82397	27.47482	1477.17786	-336.79510				-142.81615	1286.24377	-200.42923	-218.99593	1529.73608	-355.66446	51.76752	1336.63965	-257.30923	-439.83084	1226.25964	-34.58626	93.31700	1216.99353	-407.35867	-321.25369	1111.18481	153.00558	-22.79211	907.87183	-250.61501	-294.36386	932.13544	-119.94580	-252.27586	990.03601	-452.74493	-18.66935	493.62024	-200.10330	-332.97324	506.59650	-143.85960	-68.39051	88.98378	-314.46249	-340.84741	99.06905	-187.81198	
152	1.510	-153.07307	1416.93628	-18.97486	-249.40637	1527.76599	-59.86082				-25.03661	1553.70264	-116.04253	29.67676	1477.39648	-333.21063				-143.43906	1286.90247	-200.13170	-215.40729	1529.72961	-357.20316	51.00079	1338.51672	-254.33031	-444.00519	1227.40747	-40.85788	97.15502	1218.18713	-402.21057	-332.79520	1110.68579	150.45964	-22.67755	907.80359	-248.92857	-295.82254	932.36658	-123.38079	-247.06648	990.81421	-455.11624	-18.61607	494.66373	-197.55656	-331.88254	507.64755	-145.84903	-68.01013	88.48927	-314.21213	-340.83694	99.68620	-187.94319	
153	1.520	-157.27490	1417.48865	-19.54997	-252.76842	1528.22510	-62.27489				-27.87111	1554.36389	-113.33005	31.31551	1477.82727	-329.97937	-323.82947	1450.04114	-159.84752	-144.43422	1287.41125	-199.84546	-212.73930	1530.16870	-359.18900	49.09442	1340.02942	-251.65187	-448.20557	1228.52014	-46.56364	100.81308	1219.76208	-398.77097	-342.76337	1110.43457	147.63919	-21.34542	908.22705	-246.85428	-297.77396	931.94873	-127.57630	-240.86278	990.55664	-457.30536	-18.32672	495.25681	-195.65509	-330.19766	507.86551	-148.06161	-67.57851	87.81414	-313.78906	-341.22754	100.40726	-188.39395	
154	1.530	-160.84845	1417.77795	-20.25658	-255.87451	1528.29211	-64.00020				-29.91252	1554.25952	-112.00822	33.43877	1478.86377	-325.42419	-325.44641	1451.04956	-163.60287	-144.97627	1287.76404	-200.20139	-210.88123	1530.14490	-359.69867	47.42416	1341.48083	-249.26472	-452.48187	1229.22900	-53.13333	104.54944	1220.25708	-393.58194	-353.04639	1109.93848	144.83766	-20.55881	908.17889	-245.22841	-299.93369	932.59094	-131.06154	-234.86433	990.50055	-460.28702	-17.38775	496.14075	-192.34755	-329.25003	509.62634	-149.04808	-67.59308	87.81666	-314.20258	-341.45184	100.71417	-188.45015	
155	1.540	-165.73610	1418.49780	-20.27453	-259.08008	1529.98950	-65.51247				-32.63522	1554.91858	-110.61912	35.54041	1478.73975	-321.99246	-327.66565	1451.97290	-168.12924	-145.98872	1288.36121	-199.43213	-208.15578	1530.31433	-361.01617	46.29369	1342.90588	-247.24091	-456.87939	1230.10071	-58.05678	108.24725	1220.82190	-387.99945	-364.50717	1110.12048	141.95116	-19.82525	908.40344	-243.31322	-300.71494	932.81213	-136.01657	-229.01547	990.25079	-462.80533	-17.39541	496.21982	-191.52620	-328.68890	510.80392	-149.91034	-67.27977	86.95026	-314.30231	-341.66388	101.71758	-189.27048	
